<?xml version="1.0" encoding="UTF-8"?>
<svg width="128px" height="128px" viewBox="0 0 128 128" version="1.1" xmlns="http://www.w3.org/2000/svg" xmlns:xlink="http://www.w3.org/1999/xlink">
    <title>classisland-icon</title>
    <defs>
        <linearGradient x1="50%" y1="0%" x2="50%" y2="100%" id="linearGradient-1">
            <stop stop-color="#E0E0E0" offset="0%"></stop>
            <stop stop-color="#A8A8A8" offset="100%"></stop>
        </linearGradient>
        <path d="M33.3305076,0 L94.6694924,1.81366828e-15 C106.259236,-1.0537935e-15 110.461957,1.20673295 114.698994,3.47272515 C118.936031,5.73871735 122.261283,9.06396882 124.527275,13.3010059 C126.793267,17.5380429 128,21.740764 128,33.3305076 L128,94.6694924 C128,106.259236 126.793267,110.461957 124.527275,114.698994 C122.261283,118.936031 118.936031,122.261283 114.698994,124.527275 C110.461957,126.793267 106.259236,128 94.6694924,128 L33.3305076,128 C21.740764,128 17.5380429,126.793267 13.3010059,124.527275 C9.06396882,122.261283 5.73871735,118.936031 3.47272515,114.698994 C1.20673295,110.461957 0,106.259236 0,94.6694924 L0,33.3305076 C0,21.740764 1.20673295,17.5380429 3.47272515,13.3010059 C5.73871735,9.06396882 9.06396882,5.73871735 13.3010059,3.47272515 C17.5380429,1.20673295 21.740764,0 33.3305076,0 Z" id="path-2"></path>
        <filter x="-4.7%" y="-4.7%" width="109.4%" height="109.4%" filterUnits="objectBoundingBox" id="filter-3">
            <feGaussianBlur stdDeviation="4" in="SourceAlpha" result="shadowBlurInner1"></feGaussianBlur>
            <feOffset dx="0" dy="-4" in="shadowBlurInner1" result="shadowOffsetInner1"></feOffset>
            <feComposite in="shadowOffsetInner1" in2="SourceAlpha" operator="arithmetic" k2="-1" k3="1" result="shadowInnerInner1"></feComposite>
            <feColorMatrix values="0 0 0 0 0   0 0 0 0 0   0 0 0 0 0  0 0 0 0.2 0" type="matrix" in="shadowInnerInner1"></feColorMatrix>
        </filter>
        <path d="M0,0 L141.5,0 L141.5,141.5 L0,141.5 L0,0 Z" id="path-4"></path>
        <filter x="-9.3%" y="2.4%" width="119.5%" height="98.0%" filterUnits="objectBoundingBox" id="filter-5">
            <feOffset dx="0" dy="2" in="SourceAlpha" result="shadowOffsetOuter1"></feOffset>
            <feGaussianBlur stdDeviation="6" in="shadowOffsetOuter1" result="shadowBlurOuter1"></feGaussianBlur>
            <feColorMatrix values="0 0 0 0 0   0 0 0 0 0   0 0 0 0 0  0 0 0 0.65 0" type="matrix" in="shadowBlurOuter1"></feColorMatrix>
        </filter>
        <linearGradient x1="5.12877721e-13%" y1="-1.25749517e-12%" x2="100%" y2="100%" id="linearGradient-6">
            <stop stop-color="#666666" offset="0%"></stop>
            <stop stop-color="#999999" offset="100%"></stop>
        </linearGradient>
        <linearGradient x1="64.1113281%" y1="46.9240232%" x2="35.8886719%" y2="100%" id="linearGradient-7">
            <stop stop-color="#C2C2C2" offset="0%"></stop>
            <stop stop-color="#959595" offset="100%"></stop>
        </linearGradient>
        <polygon id="path-8" points="85.4895833 0 35.375 50.1145833 35.375 94.3333333 85.4895833 44.21875"></polygon>
        <filter x="-14.0%" y="-8.7%" width="143.9%" height="117.3%" filterUnits="objectBoundingBox" id="filter-9">
            <feMorphology radius="1" operator="erode" in="SourceAlpha" result="shadowSpreadOuter1"></feMorphology>
            <feOffset dx="4" dy="0" in="shadowSpreadOuter1" result="shadowOffsetOuter1"></feOffset>
            <feGaussianBlur stdDeviation="4" in="shadowOffsetOuter1" result="shadowBlurOuter1"></feGaussianBlur>
            <feColorMatrix values="0 0 0 0 0   0 0 0 0 0   0 0 0 0 0  0 0 0 0.15 0" type="matrix" in="shadowBlurOuter1"></feColorMatrix>
        </filter>
        <path d="M5.68434189e-14,50.9430105 L6.03961325e-14,89.5049062 C6.06181771e-14,90.6094757 0.8954305,91.5049062 2,91.5049062 C2.53043298,91.5049062 3.03914081,91.2941925 3.41421356,90.9191198 L50.1145833,44.21875 L50.1145833,44.21875 L50.1145833,0 L0.585786438,49.5287969 C0.210713681,49.9038697 7.23865412e-14,50.4125775 7.23865412e-14,50.9430105 Z" id="path-10"></path>
        <rect id="path-12" x="0.0356156782" y="42.12019" width="50.1" height="2.1"></rect>
        <filter x="-15.0%" y="-214.3%" width="129.9%" height="814.3%" filterUnits="objectBoundingBox" id="filter-13">
            <feOffset dx="0" dy="3" in="SourceAlpha" result="shadowOffsetOuter1"></feOffset>
            <feGaussianBlur stdDeviation="2" in="shadowOffsetOuter1" result="shadowBlurOuter1"></feGaussianBlur>
            <feColorMatrix values="0 0 0 0 0   0 0 0 0 0   0 0 0 0 0  0 0 0 0.25 0" type="matrix" in="shadowBlurOuter1"></feColorMatrix>
        </filter>
        <linearGradient x1="-1.97986592e-13%" y1="36.6322885%" x2="100%" y2="63.3677115%" id="linearGradient-14">
            <stop stop-color="#00E1FF" offset="0%"></stop>
            <stop stop-color="#00BFFF" offset="100%"></stop>
        </linearGradient>
        <linearGradient x1="26.1659227%" y1="48.5785699%" x2="76.1659227%" y2="71.6661488%" id="linearGradient-15">
            <stop stop-color="#000000" stop-opacity="0.15" offset="32%"></stop>
            <stop stop-color="#000000" stop-opacity="0.02" offset="62%"></stop>
            <stop stop-color="#000000" stop-opacity="0" offset="100%"></stop>
        </linearGradient>
    </defs>
    <g id="classisland-icon" stroke="none" fill="none" transform="translate(-0, 0)" xlink:href="#path-2">
        <use fill="url(#linearGradient-1)" fill-rule="evenodd" xlink:href="#path-2"></use>
        <use fill="black" fill-opacity="1" filter="url(#filter-3)" xlink:href="#path-2"></use>
        <g id="Graphic" transform="translate(64, 64) rotate(-10) translate(-64, -64)translate(-6.75, -6.75)" xlink:href="#path-4">
            <use fill="black" fill-opacity="1" filter="url(#filter-5)" xlink:href="#path-4"></use>
            <g id="AppLogo" stroke-width="1" fill-rule="evenodd" transform="translate(5.8958, 23.5833)">
                <path d="M125.24224,94.3333333 L35.375,94.3333333 L35.375,50.1145833 L125.24224,50.1145833 C128.498418,50.1145833 131.138073,52.7542378 131.138073,56.0104167 L131.138073,88.4375 C131.138073,91.6936788 128.498418,94.3333333 125.24224,94.3333333 Z" id="Path" fill="#E2E2E2" fill-rule="nonzero"></path>
                <path d="M48.2639633,61.1692708 L65.2455679,61.1692708 C66.1370867,61.1692708 66.4603729,61.2620964 66.7862988,61.4364035 C67.1122248,61.6107106 67.3680133,61.8664992 67.5423204,62.1924251 C67.7166275,62.5183511 67.8094531,62.8416373 67.8094531,63.733156 L67.8094531,80.7147606 C67.8094531,81.6062794 67.7166275,81.9295656 67.5423204,82.2554915 C67.3680133,82.5814175 67.1122248,82.837206 66.7862988,83.0115131 C66.4603729,83.1858202 66.1370867,83.2786458 65.2455679,83.2786458 L48.2639633,83.2786458 C47.3724446,83.2786458 47.0491583,83.1858202 46.7232324,83.0115131 C46.3973065,82.837206 46.1415179,82.5814175 45.9672108,82.2554915 C45.7929037,81.9295656 45.7000781,81.6062794 45.7000781,80.7147606 L45.7000781,63.733156 C45.7000781,62.8416373 45.7929037,62.5183511 45.9672108,62.1924251 C46.1415179,61.8664992 46.3973065,61.6107106 46.7232324,61.4364035 C47.0491583,61.2620964 47.3724446,61.1692708 48.2639633,61.1692708 Z" id="Rectangle" fill="url(#linearGradient-6)" fill-rule="nonzero"></path>
                <path d="M75.9006821,61.1692708 L92.8822867,61.1692708 C93.7738054,61.1692708 94.0970917,61.2620964 94.4230176,61.4364035 C94.7489435,61.6107106 95.0047321,61.8664992 95.1790392,62.1924251 C95.3533463,62.5183511 95.4461719,62.8416373 95.4461719,63.733156 L95.4461719,80.7147606 C95.4461719,81.6062794 95.3533463,81.9295656 95.1790392,82.2554915 C95.0047321,82.5814175 94.7489435,82.837206 94.4230176,83.0115131 C94.0970917,83.1858202 93.7738054,83.2786458 92.8822867,83.2786458 L75.9006821,83.2786458 C75.0091633,83.2786458 74.6858771,83.1858202 74.3599512,83.0115131 C74.0340252,82.837206 73.7782367,82.5814175 73.6039296,82.2554915 C73.4296225,81.9295656 73.3367969,81.6062794 73.3367969,80.7147606 L73.3367969,63.733156 C73.3367969,62.8416373 73.4296225,62.5183511 73.6039296,62.1924251 C73.7782367,61.8664992 74.0340252,61.6107106 74.3599512,61.4364035 C74.6858771,61.2620964 75.0091633,61.1692708 75.9006821,61.1692708 Z" id="Rectangle" fill="#999999" fill-rule="nonzero"></path>
                <path d="M103.530031,61.1692708 L120.511636,61.1692708 C121.403154,61.1692708 121.726441,61.2620964 122.052367,61.4364035 C122.378292,61.6107106 122.634081,61.8664992 122.808388,62.1924251 C122.982695,62.5183511 123.075521,62.8416373 123.075521,63.733156 L123.075521,80.7147606 C123.075521,81.6062794 122.982695,81.9295656 122.808388,82.2554915 C122.634081,82.5814175 122.378292,82.837206 122.052367,83.0115131 C121.726441,83.1858202 121.403154,83.2786458 120.511636,83.2786458 L103.530031,83.2786458 C102.638512,83.2786458 102.315226,83.1858202 101.9893,83.0115131 C101.663374,82.837206 101.407586,82.5814175 101.233279,82.2554915 C101.058971,81.9295656 100.966146,81.6062794 100.966146,80.7147606 L100.966146,63.733156 C100.966146,62.8416373 101.058971,62.5183511 101.233279,62.1924251 C101.407586,61.8664992 101.663374,61.6107106 101.9893,61.4364035 C102.315226,61.2620964 102.638512,61.1692708 103.530031,61.1692708 Z" id="Rectangle" fill="#999999" fill-rule="nonzero"></path>
                <g id="Path" fill-rule="nonzero">
                    <use fill="black" fill-opacity="1" filter="url(#filter-9)" xlink:href="#path-8"></use>
                    <use fill="url(#linearGradient-7)" xlink:href="#path-8"></use>
                </g>
                <g id="Group" transform="translate(35.375, 0)">
                    <mask id="mask-11" fill="white">
                        <use xlink:href="#path-10"></use>
                    </mask>
                    <use id="Path" fill="url(#linearGradient-7)" fill-rule="nonzero" xlink:href="#path-10"></use>
                    <g id="Rectangle" fill-rule="nonzero" mask="url(#mask-11)">
                        <use fill="black" fill-opacity="1" filter="url(#filter-13)" xlink:href="#path-12"></use>
                        <use fill="#FFFFFF" xlink:href="#path-12"></use>
                    </g>
                </g>
                <path d="M85.4895833,44.21875 L5.89583333,44.21875 C2.6396545,44.21875 -3.02381345e-14,41.5790955 -3.02381345e-14,38.3229167 L-3.02381345e-14,5.89583333 C-3.02381345e-14,2.6396545 2.6396545,0 5.89583333,0 L85.4895833,0 L85.4895833,44.21875 Z" id="Path" fill="#F6F6F6" fill-rule="nonzero"></path>
                <path d="M11.4076352,9.23434896 L28.3892398,9.23434896 C29.2807585,9.23434896 29.6040448,9.32717457 29.9299707,9.50148166 C30.2558966,9.67578875 30.5116852,9.93157733 30.6859923,10.2575033 C30.8602994,10.5834292 30.953125,10.9067154 30.953125,11.7982342 L30.953125,28.7798388 C30.953125,29.6713575 30.8602994,29.9946437 30.6859923,30.3205697 C30.5116852,30.6464956 30.2558966,30.9022842 29.9299707,31.0765913 C29.6040448,31.2508983 29.2807585,31.343724 28.3892398,31.343724 L11.4076352,31.343724 C10.5161165,31.343724 10.1928302,31.2508983 9.8669043,31.0765913 C9.54097837,30.9022842 9.2851898,30.6464956 9.1108827,30.3205697 C8.93657561,29.9946437 8.84375,29.6713575 8.84375,28.7798388 L8.84375,11.7982342 C8.84375,10.9067154 8.93657561,10.5834292 9.1108827,10.2575033 C9.2851898,9.93157733 9.54097837,9.67578875 9.8669043,9.50148166 C10.1928302,9.32717457 10.5161165,9.23434896 11.4076352,9.23434896 Z" id="Rectangle" fill="#CCCCCC" fill-rule="nonzero"></path>
                <path d="M37.9388852,9.23434896 L75.5706461,9.23434896 C76.4621648,9.23434896 76.785451,9.32717457 77.111377,9.50148166 C77.4373029,9.67578875 77.6930915,9.93157733 77.8673985,10.2575033 C78.0417056,10.5834292 78.1345313,10.9067154 78.1345313,11.7982342 L78.1345313,28.7798388 C78.1345313,29.6713575 78.0417056,29.9946437 77.8673985,30.3205697 C77.6930915,30.6464956 77.4373029,30.9022842 77.111377,31.0765913 C76.785451,31.2508983 76.4621648,31.343724 75.5706461,31.343724 L37.9388852,31.343724 C37.0473665,31.343724 36.7240802,31.2508983 36.3981543,31.0765913 C36.0722284,30.9022842 35.8164398,30.6464956 35.6421327,30.3205697 C35.4678256,29.9946437 35.375,29.6713575 35.375,28.7798388 L35.375,11.7982342 C35.375,10.9067154 35.4678256,10.5834292 35.6421327,10.2575033 C35.8164398,9.93157733 36.0722284,9.67578875 36.3981543,9.50148166 C36.7240802,9.32717457 37.0473665,9.23434896 37.9388852,9.23434896 Z" id="Rectangle" fill="url(#linearGradient-14)" fill-rule="nonzero"></path>
                <polygon id="Path" fill="url(#linearGradient-15)" fill-rule="nonzero" points="35.375 94.3333333 131.138073 94.3333333 131.138073 89.8672396 91.3854167 50.1145833 79.59375 50.1145833"></polygon>
            </g>
        </g>
    </g>
</svg>